<svg width="186" height="36" viewBox="0 0 186 36" fill="none" xmlns="http://www.w3.org/2000/svg">
<path d="M120.721 9.94884L121.683 9.65722V2.45397C121.683 1.91442 121.566 1.75402 121.027 1.5791L120.706 1.47704V1.15625H124.206C125.401 1.15625 126.247 1.37499 126.728 1.82701C127.093 2.16234 127.297 2.61436 127.297 3.18307C127.297 4.2038 126.524 4.90363 125.503 5.20989C126.903 5.54522 127.836 6.31804 127.836 7.64494C127.836 8.41775 127.559 9.05934 127.093 9.51136C126.582 9.99255 125.839 10.2696 124.599 10.2696H120.721V9.94884ZM123.185 5.04949H123.856C124.585 5.04949 125.066 4.84529 125.372 4.49542C125.62 4.2038 125.737 3.81003 125.737 3.32883C125.737 2.87681 125.605 2.48314 125.343 2.22069C125.008 1.89989 124.526 1.75402 123.739 1.75402H123.185V5.04949ZM123.185 5.66192V9.0448C123.185 9.51136 123.549 9.67176 124.322 9.67176C125.489 9.67176 126.203 9.05934 126.203 7.64494C126.203 7.00334 126.028 6.53679 125.707 6.216C125.299 5.80767 124.658 5.66192 123.812 5.66192H123.185Z" fill="#00859B"/>
<path d="M135.127 9.9926C134.835 10.2697 134.369 10.4446 133.946 10.4446C133.509 10.4446 133.071 10.2989 132.925 9.84684C132.517 10.2113 131.948 10.503 131.248 10.503C130.169 10.503 129.207 9.78849 129.207 8.51995C129.207 6.87216 130.884 6.24521 132.823 6.24521V5.83689C132.823 5.28282 132.736 4.9475 132.561 4.69957C132.386 4.45166 132.109 4.32044 131.744 4.32044C130.957 4.32044 130.403 4.85997 130.082 5.66197L129.513 5.42869C129.892 4.37878 130.694 3.56226 132.036 3.56226C132.779 3.56226 133.319 3.7809 133.669 4.16004C134.048 4.56835 134.223 5.13696 134.223 5.93895V9.17608C134.223 9.54058 134.354 9.74479 134.675 9.74479C134.806 9.74479 134.981 9.70098 135.127 9.6281V9.9926ZM132.823 6.7701H132.75C131.525 6.7701 130.621 7.23677 130.621 8.43243C130.621 9.26359 131.059 9.77397 131.73 9.77397C132.138 9.77397 132.546 9.56975 132.823 9.3073V6.7701Z" fill="#00859B"/>
<path d="M139.138 10.2697C138.671 10.2552 137.971 10.226 137.578 10.226C137.169 10.226 136.396 10.2697 135.974 10.2697V9.97806L136.79 9.70098V4.97667C136.79 4.51001 136.688 4.37878 136.265 4.21838L135.959 4.10169V3.79553C136.965 3.79553 137.68 3.7809 138.19 3.72265V4.68494C138.642 4.07252 139.225 3.56226 139.838 3.56226C140.319 3.56226 140.727 3.83924 140.727 4.23292C140.727 4.61206 140.421 4.9912 140.144 4.9912C139.808 4.9912 139.59 4.52454 139.24 4.52454C138.875 4.52454 138.525 4.90368 138.19 5.38487V9.10319C138.19 9.52604 138.248 9.70098 138.656 9.8322L139.138 9.97806V10.2697Z" fill="#00859B"/>
<path d="M146.675 8.98651C146.194 9.87602 145.261 10.503 144.123 10.503C142.359 10.503 141.178 9.16155 141.178 7.0472C141.178 4.9475 142.519 3.56226 144.488 3.56226C145.159 3.56226 145.858 3.72265 146.325 3.76636C146.325 4.33507 146.34 5.41405 146.369 5.88071H146.004C145.902 4.8308 145.377 4.20385 144.546 4.20385C143.394 4.20385 142.651 5.22448 142.651 6.98886C142.651 8.7824 143.423 9.65727 144.444 9.65727C145.188 9.65727 145.829 9.24896 146.281 8.66571L146.675 8.98651Z" fill="#00859B"/>
<path d="M153.12 8.97197C152.653 9.86137 151.72 10.503 150.539 10.503C148.701 10.503 147.637 8.92816 147.652 7.01803C147.666 4.91832 148.833 3.56226 150.597 3.56226C152.128 3.56226 153.193 4.58289 153.193 6.39097C153.193 6.50766 153.193 6.6827 153.178 6.85763H149.11C149.11 8.70952 149.78 9.65727 150.947 9.65727C151.676 9.65727 152.303 9.21978 152.711 8.65117L153.12 8.97197ZM151.836 6.28891C151.822 4.9912 151.399 4.21838 150.582 4.21838C149.708 4.21838 149.212 5.09325 149.139 6.28891H151.836Z" fill="#00859B"/>
<path d="M156.474 9.10313C156.474 9.54052 156.562 9.70092 156.912 9.83214L157.291 9.978V10.2696C156.824 10.2551 156.255 10.2259 155.862 10.2259C155.453 10.2259 154.681 10.2696 154.258 10.2696V9.978L155.074 9.70092V1.75401C155.074 1.28746 154.972 1.15623 154.549 0.995837L154.243 0.879139V0.572989C155.249 0.572989 155.964 0.558344 156.474 0.5V9.10313Z" fill="#00859B"/>
<path d="M161.431 10.503C159.418 10.503 158.252 9.00114 158.252 7.03256C158.252 5.06397 159.418 3.56226 161.431 3.56226C163.443 3.56226 164.609 5.06408 164.609 7.03256C164.609 9.00103 163.443 10.503 161.431 10.503ZM161.431 4.21838C160.162 4.21838 159.725 5.55992 159.725 7.03256C159.725 8.5052 160.162 9.84684 161.431 9.84684C162.699 9.84684 163.137 8.50531 163.137 7.03256C163.137 5.5598 162.699 4.21838 161.431 4.21838Z" fill="#00859B"/>
<path d="M172.076 9.10319C172.076 9.54058 172.163 9.70098 172.513 9.8322L172.892 9.97806V10.2697C172.426 10.2552 171.857 10.226 171.463 10.226C171.055 10.226 170.282 10.2697 169.859 10.2697V9.97806L170.676 9.70098V6.14316C170.676 5.58909 170.632 5.18077 170.457 4.90368C170.282 4.62669 169.991 4.4663 169.582 4.4663C168.97 4.4663 168.328 4.84534 167.876 5.37035V9.10319C167.876 9.54058 167.964 9.70098 168.314 9.8322L168.693 9.97806V10.2697C168.226 10.2552 167.658 10.226 167.264 10.226C166.856 10.226 166.083 10.2697 165.66 10.2697V9.97806L166.477 9.70098V4.97667C166.477 4.51001 166.375 4.37878 165.952 4.21838L165.646 4.10169V3.79553C166.652 3.79553 167.366 3.7809 167.876 3.72265V4.64123C168.489 3.97047 169.218 3.56226 170.02 3.56226C170.618 3.56226 171.113 3.75173 171.449 4.07252C171.901 4.51 172.076 5.09325 172.076 5.92441V9.10319Z" fill="#00859B"/>
<path d="M179.892 9.9926C179.6 10.2697 179.133 10.4446 178.711 10.4446C178.273 10.4446 177.836 10.2989 177.69 9.84684C177.282 10.2113 176.713 10.503 176.013 10.503C174.934 10.503 173.972 9.78849 173.972 8.51995C173.972 6.87216 175.649 6.24521 177.588 6.24521V5.83689C177.588 5.28282 177.5 4.9475 177.325 4.69957C177.15 4.45166 176.873 4.32044 176.509 4.32044C175.721 4.32044 175.167 4.85997 174.847 5.66197L174.278 5.42869C174.657 4.37878 175.459 3.56226 176.8 3.56226C177.544 3.56226 178.084 3.7809 178.434 4.16004C178.813 4.56835 178.988 5.13696 178.988 5.93895V9.17608C178.988 9.54058 179.119 9.74479 179.44 9.74479C179.571 9.74479 179.746 9.70098 179.892 9.6281V9.9926ZM177.588 6.7701H177.515C176.29 6.7701 175.386 7.23677 175.386 8.43243C175.386 9.26359 175.823 9.77397 176.494 9.77397C176.903 9.77397 177.311 9.56975 177.588 9.3073V6.7701Z" fill="#00859B"/>
<path d="M125.984 15.9149C125.838 14.6755 125.167 14.0485 124.175 14.0485C123.242 14.0485 122.499 14.6172 122.499 15.5357C122.499 17.6354 126.683 17.723 126.683 20.2748C126.683 20.9746 126.436 21.66 125.925 22.1703C125.429 22.6661 124.613 23.0015 123.505 23.0015C122.659 23.0015 121.813 22.8411 121.201 22.6223V20.406H121.594C121.726 21.8204 122.601 22.389 123.563 22.389C124.671 22.389 125.313 21.6891 125.313 20.7413C125.313 18.6416 121.128 18.729 121.128 15.944C121.128 15.317 121.376 14.7484 121.799 14.3109C122.324 13.7714 123.169 13.436 124.219 13.436C124.904 13.436 125.488 13.5819 126.261 13.6401C126.261 14.1068 126.319 15.3608 126.377 15.9149H125.984Z" fill="#00859B"/>
<path d="M133.597 21.485C133.116 22.3745 132.182 23.0015 131.045 23.0015C129.281 23.0015 128.1 21.6601 128.1 19.5457C128.1 17.446 129.441 16.0608 131.41 16.0608C132.08 16.0608 132.78 16.2212 133.247 16.2649C133.247 16.8336 133.261 17.9126 133.291 18.3792H132.926C132.824 17.3293 132.299 16.7024 131.468 16.7024C130.316 16.7024 129.572 17.723 129.572 19.4874C129.572 21.2809 130.345 22.1558 131.366 22.1558C132.109 22.1558 132.751 21.7475 133.203 21.1642L133.597 21.485Z" fill="#00859B"/>
<path d="M140.872 21.6017C140.872 22.0391 140.959 22.1995 141.309 22.3307L141.688 22.4765V22.7682C141.222 22.7536 140.653 22.7245 140.259 22.7245C139.851 22.7245 139.078 22.7682 138.655 22.7682V22.4765L139.472 22.1995V18.6416C139.472 18.0876 139.428 17.6792 139.253 17.4022C139.078 17.1252 138.787 16.9648 138.378 16.9648C137.766 16.9648 137.124 17.3438 136.672 17.8688V21.6017C136.672 22.0391 136.76 22.1995 137.11 22.3307L137.489 22.4765V22.7682C137.022 22.7536 136.454 22.7245 136.06 22.7245C135.652 22.7245 134.879 22.7682 134.456 22.7682V22.4765L135.273 22.1995V14.2526C135.273 13.786 135.171 13.6548 134.748 13.4944L134.441 13.3777V13.0715C135.448 13.0715 136.162 13.0569 136.672 12.9985V17.1397C137.285 16.4689 138.014 16.0607 138.816 16.0607C139.414 16.0607 139.909 16.2502 140.245 16.571C140.697 17.0085 140.872 17.5917 140.872 18.4229V21.6017Z" fill="#00859B"/>
<path d="M145.785 23.0015C143.773 23.0015 142.606 21.4997 142.606 19.5311C142.606 17.5625 143.773 16.0608 145.785 16.0608C147.798 16.0608 148.964 17.5626 148.964 19.5311C148.964 21.4996 147.797 23.0015 145.785 23.0015ZM145.785 16.7169C144.517 16.7169 144.079 18.0584 144.079 19.5311C144.079 21.0037 144.517 22.3454 145.785 22.3454C147.054 22.3454 147.491 21.0038 147.491 19.5311C147.491 18.0583 147.054 16.7169 145.785 16.7169Z" fill="#00859B"/>
<path d="M153.223 23.0015C151.21 23.0015 150.044 21.4997 150.044 19.5311C150.044 17.5625 151.21 16.0608 153.223 16.0608C155.235 16.0608 156.401 17.5626 156.401 19.5311C156.401 21.4996 155.235 23.0015 153.223 23.0015ZM153.223 16.7169C151.954 16.7169 151.517 18.0584 151.517 19.5311C151.517 21.0037 151.954 22.3454 153.223 22.3454C154.491 22.3454 154.929 21.0038 154.929 19.5311C154.929 18.0583 154.491 16.7169 153.223 16.7169Z" fill="#00859B"/>
<path d="M159.594 21.6017C159.594 22.0391 159.682 22.1995 160.032 22.3307L160.411 22.4765V22.7682C159.944 22.7536 159.376 22.7245 158.982 22.7245C158.574 22.7245 157.801 22.7682 157.378 22.7682V22.4765L158.194 22.1995V14.2526C158.194 13.786 158.092 13.6548 157.67 13.4944L157.363 13.3777V13.0715C158.369 13.0715 159.084 13.0569 159.594 12.9985V21.6017Z" fill="#00859B"/>
<path d="M167.148 23.0015C165.135 23.0015 163.969 21.4997 163.969 19.5311C163.969 17.5625 165.135 16.0608 167.148 16.0608C169.16 16.0608 170.326 17.5626 170.326 19.5311C170.326 21.4996 169.16 23.0015 167.148 23.0015ZM167.148 16.7169C165.879 16.7169 165.441 18.0584 165.441 19.5311C165.441 21.0037 165.879 22.3454 167.148 22.3454C168.416 22.3454 168.854 21.0038 168.854 19.5311C168.854 18.0583 168.416 16.7169 167.148 16.7169Z" fill="#00859B"/>
<path d="M171.392 22.7682V22.4765L172.208 22.1995V16.8626H171.217V16.294H172.208V16.192C172.223 14.1505 173.04 12.8528 174.658 12.8528C175.431 12.8528 176.306 13.2319 176.306 13.7713C176.306 14.1213 176.014 14.5442 175.708 14.5442C175.198 14.5442 174.935 13.4069 174.337 13.4069C173.783 13.4069 173.608 14.1943 173.608 15.2733V16.294H175.3L175.183 16.8626H173.608V21.6017C173.608 22.0245 173.666 22.1995 174.075 22.3307L174.556 22.4765V22.7682C174.089 22.7536 173.389 22.7245 172.996 22.7245C172.602 22.7245 171.815 22.7682 171.392 22.7682Z" fill="#00859B"/>
<path d="M120.721 34.9459L121.683 34.6543V27.451C121.683 26.9115 121.566 26.7511 121.027 26.5762L120.706 26.4741V26.1533H127.151C127.166 26.6929 127.253 27.8885 127.311 28.3405H126.903C126.699 27.1741 126.407 26.7511 124.483 26.7511C124.074 26.7511 123.593 26.7657 123.185 26.7803V30.2799H124.147C124.993 30.2799 125.693 30.2215 125.97 30.1632L125.897 30.9652C125.635 30.9214 124.76 30.8777 124.147 30.8777H123.185V34.0272C123.185 34.5084 123.506 34.6688 124.672 34.6688C125.897 34.6688 126.262 34.5668 126.539 34.3627C126.859 34.1294 127.034 33.6774 127.166 33.094H127.53C127.486 33.5899 127.443 34.8147 127.443 35.2667H120.721V34.9459Z" fill="#00859B"/>
<path d="M134.267 33.9836C133.786 34.8731 132.852 35.5 131.715 35.5C129.951 35.5 128.77 34.1586 128.77 32.0443C128.77 29.9446 130.111 28.5593 132.08 28.5593C132.75 28.5593 133.45 28.7197 133.917 28.7634C133.917 29.3321 133.931 30.4111 133.961 30.8778H133.596C133.494 29.8279 132.969 29.2008 132.138 29.2008C130.986 29.2008 130.242 30.2215 130.242 31.9859C130.242 33.7795 131.015 34.6543 132.036 34.6543C132.779 34.6543 133.421 34.246 133.873 33.6628L134.267 33.9836Z" fill="#00859B"/>
<path d="M138.407 35.5C136.395 35.5 135.229 33.9982 135.229 32.0296C135.229 30.061 136.395 28.5593 138.407 28.5593C140.42 28.5593 141.586 30.0612 141.586 32.0296C141.586 33.9981 140.419 35.5 138.407 35.5ZM138.407 29.2155C137.139 29.2155 136.701 30.557 136.701 32.0296C136.701 33.5023 137.139 34.8439 138.407 34.8439C139.676 34.8439 140.113 33.5024 140.113 32.0296C140.113 30.5569 139.676 29.2155 138.407 29.2155Z" fill="#00859B"/>
<path d="M149.052 34.1003C149.052 34.5377 149.14 34.698 149.49 34.8293L149.869 34.9751V35.2668C149.402 35.2522 148.834 35.2231 148.44 35.2231C148.032 35.2231 147.259 35.2668 146.836 35.2668V34.9751L147.653 34.698V31.1402C147.653 30.5862 147.609 30.1778 147.434 29.9008C147.259 29.6238 146.967 29.4634 146.559 29.4634C145.947 29.4634 145.305 29.8424 144.853 30.3674V34.1003C144.853 34.5377 144.941 34.698 145.29 34.8293L145.67 34.9751V35.2668C145.203 35.2522 144.634 35.2231 144.241 35.2231C143.832 35.2231 143.059 35.2668 142.637 35.2668V34.9751L143.453 34.698V29.9737C143.453 29.5071 143.351 29.3759 142.928 29.2155L142.622 29.0988V28.7926C143.628 28.7926 144.343 28.778 144.853 28.7197V29.6383C145.465 28.9675 146.195 28.5593 146.996 28.5593C147.594 28.5593 148.09 28.7488 148.425 29.0696C148.877 29.5071 149.052 30.0903 149.052 30.9215V34.1003Z" fill="#00859B"/>
<path d="M153.966 35.5C151.954 35.5 150.787 33.9982 150.787 32.0296C150.787 30.061 151.954 28.5593 153.966 28.5593C155.978 28.5593 157.145 30.0612 157.145 32.0296C157.145 33.9981 155.978 35.5 153.966 35.5ZM153.966 29.2155C152.697 29.2155 152.26 30.557 152.26 32.0296C152.26 33.5023 152.697 34.8439 153.966 34.8439C155.235 34.8439 155.672 33.5024 155.672 32.0296C155.672 30.5569 155.234 29.2155 153.966 29.2155Z" fill="#00859B"/>
<path d="M164.524 34.1003C164.524 34.5377 164.611 34.698 164.961 34.8293L165.34 34.9751V35.2668C164.873 35.2522 164.305 35.2231 163.911 35.2231C163.503 35.2231 162.759 35.2668 162.336 35.2668V34.9751L163.124 34.698V31.1402C163.124 30.5862 163.08 30.1778 162.905 29.9008C162.73 29.6238 162.453 29.4634 162.059 29.4634C161.491 29.4634 160.864 29.8279 160.412 30.3674V34.1003C160.412 34.5377 160.499 34.698 160.849 34.8293L161.228 34.9751V35.2668C160.762 35.2522 160.193 35.2231 159.799 35.2231C159.391 35.2231 158.618 35.2668 158.195 35.2668V34.9751L159.012 34.698V29.9737C159.012 29.5071 158.91 29.3759 158.487 29.2155L158.181 29.0988V28.7926C159.187 28.7926 159.901 28.778 160.412 28.7197V29.6383C161.039 28.953 161.738 28.5593 162.497 28.5593C163.08 28.5593 163.561 28.7488 163.897 29.0696C164.101 29.2738 164.247 29.5071 164.349 29.7842C165.034 28.9967 165.85 28.5593 166.594 28.5593C167.177 28.5593 167.659 28.7488 167.994 29.0696C168.446 29.5071 168.621 30.0903 168.621 30.9215V34.1003C168.621 34.5377 168.708 34.698 169.058 34.8293L169.437 34.9751V35.2668C168.971 35.2522 168.402 35.2231 168.009 35.2231C167.6 35.2231 166.857 35.2668 166.434 35.2668V34.9751L167.221 34.698V31.1402C167.221 30.5862 167.177 30.1778 167.002 29.9008C166.827 29.6238 166.55 29.4634 166.157 29.4634C165.617 29.4634 164.976 29.8133 164.48 30.3236C164.509 30.5132 164.524 30.7174 164.524 30.9215V34.1003Z" fill="#00859B"/>
<path d="M172.557 34.1003C172.557 34.5377 172.645 34.6981 172.995 34.8294L173.374 34.9752V35.2668C172.907 35.2523 172.338 35.2231 171.945 35.2231C171.536 35.2231 170.764 35.2668 170.341 35.2668V34.9752L171.157 34.6981V29.9738C171.157 29.5072 171.055 29.3759 170.632 29.2155L170.326 29.0989V28.7927C171.332 28.7927 172.047 28.7781 172.557 28.7198V34.1003ZM171.784 27.6844C172.236 27.6844 172.601 27.3345 172.601 26.8534C172.601 26.3723 172.236 26.0222 171.784 26.0222C171.332 26.0222 170.968 26.3722 170.968 26.8534C170.968 27.3346 171.332 27.6844 171.784 27.6844Z" fill="#00859B"/>
<path d="M179.849 33.9836C179.368 34.8731 178.434 35.5 177.297 35.5C175.533 35.5 174.352 34.1586 174.352 32.0443C174.352 29.9446 175.693 28.5593 177.662 28.5593C178.332 28.5593 179.032 28.7197 179.499 28.7634C179.499 29.3321 179.513 30.4111 179.543 30.8778H179.178C179.076 29.8279 178.551 29.2008 177.72 29.2008C176.568 29.2008 175.824 30.2215 175.824 31.9859C175.824 33.7795 176.597 34.6543 177.618 34.6543C178.361 34.6543 179.003 34.246 179.455 33.6628L179.849 33.9836Z" fill="#00859B"/>
<path d="M184.952 30.6152C184.792 29.7112 184.34 29.1279 183.538 29.1279C182.853 29.1279 182.371 29.5362 182.371 30.0758C182.371 30.6444 182.896 30.9652 183.815 31.4319C184.879 31.9714 185.608 32.4671 185.608 33.4878C185.608 34.7272 184.544 35.5 183.217 35.5C182.546 35.5 181.73 35.3251 181.161 35.0918V33.3275H181.496C181.628 34.2169 182.255 34.9168 183.217 34.9168C183.83 34.9168 184.398 34.5377 184.398 33.9107C184.398 33.2983 183.873 32.992 183.144 32.6275C182.08 32.1026 181.161 31.5923 181.161 30.484C181.161 29.2738 182.269 28.5593 183.465 28.5593C184.107 28.5593 184.748 28.7343 185.229 28.7926C185.229 29.3904 185.244 30.1341 185.288 30.6152H184.952Z" fill="#00859B"/>
<path d="M120.721 9.94884L121.683 9.65722V2.45397C121.683 1.91442 121.566 1.75402 121.027 1.5791L120.706 1.47704V1.15625H124.206C125.401 1.15625 126.247 1.37499 126.728 1.82701C127.093 2.16234 127.297 2.61436 127.297 3.18307C127.297 4.2038 126.524 4.90363 125.503 5.20989C126.903 5.54522 127.836 6.31804 127.836 7.64494C127.836 8.41775 127.559 9.05934 127.093 9.51136C126.582 9.99255 125.839 10.2696 124.599 10.2696H120.721V9.94884ZM123.185 5.04949H123.856C124.585 5.04949 125.066 4.84529 125.372 4.49542C125.62 4.2038 125.737 3.81003 125.737 3.32883C125.737 2.87681 125.605 2.48314 125.343 2.22069C125.008 1.89989 124.526 1.75402 123.739 1.75402H123.185V5.04949ZM123.185 5.66192V9.0448C123.185 9.51136 123.549 9.67176 124.322 9.67176C125.489 9.67176 126.203 9.05934 126.203 7.64494C126.203 7.00334 126.028 6.53679 125.707 6.216C125.299 5.80767 124.658 5.66192 123.812 5.66192H123.185Z" fill="#00859B"/>
<path d="M135.127 9.9926C134.835 10.2697 134.369 10.4446 133.946 10.4446C133.509 10.4446 133.071 10.2989 132.925 9.84684C132.517 10.2113 131.948 10.503 131.248 10.503C130.169 10.503 129.207 9.78849 129.207 8.51995C129.207 6.87216 130.884 6.24521 132.823 6.24521V5.83689C132.823 5.28282 132.736 4.9475 132.561 4.69957C132.386 4.45166 132.109 4.32044 131.744 4.32044C130.957 4.32044 130.403 4.85997 130.082 5.66197L129.513 5.42869C129.892 4.37878 130.694 3.56226 132.036 3.56226C132.779 3.56226 133.319 3.7809 133.669 4.16004C134.048 4.56835 134.223 5.13696 134.223 5.93895V9.17608C134.223 9.54058 134.354 9.74479 134.675 9.74479C134.806 9.74479 134.981 9.70098 135.127 9.6281V9.9926ZM132.823 6.7701H132.75C131.525 6.7701 130.621 7.23677 130.621 8.43243C130.621 9.26359 131.059 9.77397 131.73 9.77397C132.138 9.77397 132.546 9.56975 132.823 9.3073V6.7701Z" fill="#00859B"/>
<path d="M139.138 10.2697C138.671 10.2552 137.971 10.226 137.578 10.226C137.169 10.226 136.396 10.2697 135.974 10.2697V9.97806L136.79 9.70098V4.97667C136.79 4.51001 136.688 4.37878 136.265 4.21838L135.959 4.10169V3.79553C136.965 3.79553 137.68 3.7809 138.19 3.72265V4.68494C138.642 4.07252 139.225 3.56226 139.838 3.56226C140.319 3.56226 140.727 3.83924 140.727 4.23292C140.727 4.61206 140.421 4.9912 140.144 4.9912C139.808 4.9912 139.59 4.52454 139.24 4.52454C138.875 4.52454 138.525 4.90368 138.19 5.38487V9.10319C138.19 9.52604 138.248 9.70098 138.656 9.8322L139.138 9.97806V10.2697Z" fill="#00859B"/>
<path d="M146.675 8.98651C146.194 9.87602 145.261 10.503 144.123 10.503C142.359 10.503 141.178 9.16155 141.178 7.0472C141.178 4.9475 142.519 3.56226 144.488 3.56226C145.159 3.56226 145.858 3.72265 146.325 3.76636C146.325 4.33507 146.34 5.41405 146.369 5.88071H146.004C145.902 4.8308 145.377 4.20385 144.546 4.20385C143.394 4.20385 142.651 5.22448 142.651 6.98886C142.651 8.7824 143.423 9.65727 144.444 9.65727C145.188 9.65727 145.829 9.24896 146.281 8.66571L146.675 8.98651Z" fill="#00859B"/>
<path d="M153.12 8.97197C152.653 9.86137 151.72 10.503 150.539 10.503C148.701 10.503 147.637 8.92816 147.652 7.01803C147.666 4.91832 148.833 3.56226 150.597 3.56226C152.128 3.56226 153.193 4.58289 153.193 6.39097C153.193 6.50766 153.193 6.6827 153.178 6.85763H149.11C149.11 8.70952 149.78 9.65727 150.947 9.65727C151.676 9.65727 152.303 9.21978 152.711 8.65117L153.12 8.97197ZM151.836 6.28891C151.822 4.9912 151.399 4.21838 150.582 4.21838C149.708 4.21838 149.212 5.09325 149.139 6.28891H151.836Z" fill="#00859B"/>
<path d="M156.474 9.10313C156.474 9.54052 156.562 9.70092 156.912 9.83214L157.291 9.978V10.2696C156.824 10.2551 156.255 10.2259 155.862 10.2259C155.453 10.2259 154.681 10.2696 154.258 10.2696V9.978L155.074 9.70092V1.75401C155.074 1.28746 154.972 1.15623 154.549 0.995837L154.243 0.879139V0.572989C155.249 0.572989 155.964 0.558344 156.474 0.5V9.10313Z" fill="#00859B"/>
<path d="M161.431 10.503C159.418 10.503 158.252 9.00114 158.252 7.03256C158.252 5.06397 159.418 3.56226 161.431 3.56226C163.443 3.56226 164.609 5.06408 164.609 7.03256C164.609 9.00103 163.443 10.503 161.431 10.503ZM161.431 4.21838C160.162 4.21838 159.725 5.55992 159.725 7.03256C159.725 8.5052 160.162 9.84684 161.431 9.84684C162.699 9.84684 163.137 8.50531 163.137 7.03256C163.137 5.5598 162.699 4.21838 161.431 4.21838Z" fill="#00859B"/>
<path d="M172.076 9.10319C172.076 9.54058 172.163 9.70098 172.513 9.8322L172.892 9.97806V10.2697C172.426 10.2552 171.857 10.226 171.463 10.226C171.055 10.226 170.282 10.2697 169.859 10.2697V9.97806L170.676 9.70098V6.14316C170.676 5.58909 170.632 5.18077 170.457 4.90368C170.282 4.62669 169.991 4.4663 169.582 4.4663C168.97 4.4663 168.328 4.84534 167.876 5.37035V9.10319C167.876 9.54058 167.964 9.70098 168.314 9.8322L168.693 9.97806V10.2697C168.226 10.2552 167.658 10.226 167.264 10.226C166.856 10.226 166.083 10.2697 165.66 10.2697V9.97806L166.477 9.70098V4.97667C166.477 4.51001 166.375 4.37878 165.952 4.21838L165.646 4.10169V3.79553C166.652 3.79553 167.366 3.7809 167.876 3.72265V4.64123C168.489 3.97047 169.218 3.56226 170.02 3.56226C170.618 3.56226 171.113 3.75173 171.449 4.07252C171.901 4.51 172.076 5.09325 172.076 5.92441V9.10319Z" fill="#00859B"/>
<path d="M179.892 9.9926C179.6 10.2697 179.133 10.4446 178.711 10.4446C178.273 10.4446 177.836 10.2989 177.69 9.84684C177.282 10.2113 176.713 10.503 176.013 10.503C174.934 10.503 173.972 9.78849 173.972 8.51995C173.972 6.87216 175.649 6.24521 177.588 6.24521V5.83689C177.588 5.28282 177.5 4.9475 177.325 4.69957C177.15 4.45166 176.873 4.32044 176.509 4.32044C175.721 4.32044 175.167 4.85997 174.847 5.66197L174.278 5.42869C174.657 4.37878 175.459 3.56226 176.8 3.56226C177.544 3.56226 178.084 3.7809 178.434 4.16004C178.813 4.56835 178.988 5.13696 178.988 5.93895V9.17608C178.988 9.54058 179.119 9.74479 179.44 9.74479C179.571 9.74479 179.746 9.70098 179.892 9.6281V9.9926ZM177.588 6.7701H177.515C176.29 6.7701 175.386 7.23677 175.386 8.43243C175.386 9.26359 175.823 9.77397 176.494 9.77397C176.903 9.77397 177.311 9.56975 177.588 9.3073V6.7701Z" fill="#00859B"/>
<path d="M125.984 15.9149C125.838 14.6755 125.167 14.0485 124.175 14.0485C123.242 14.0485 122.499 14.6172 122.499 15.5357C122.499 17.6354 126.683 17.723 126.683 20.2748C126.683 20.9746 126.436 21.66 125.925 22.1703C125.429 22.6661 124.613 23.0015 123.505 23.0015C122.659 23.0015 121.813 22.8411 121.201 22.6223V20.406H121.594C121.726 21.8204 122.601 22.389 123.563 22.389C124.671 22.389 125.313 21.6891 125.313 20.7413C125.313 18.6416 121.128 18.729 121.128 15.944C121.128 15.317 121.376 14.7484 121.799 14.3109C122.324 13.7714 123.169 13.436 124.219 13.436C124.904 13.436 125.488 13.5819 126.261 13.6401C126.261 14.1068 126.319 15.3608 126.377 15.9149H125.984Z" fill="#00859B"/>
<path d="M133.597 21.485C133.116 22.3745 132.182 23.0015 131.045 23.0015C129.281 23.0015 128.1 21.6601 128.1 19.5457C128.1 17.446 129.441 16.0608 131.41 16.0608C132.08 16.0608 132.78 16.2212 133.247 16.2649C133.247 16.8336 133.261 17.9126 133.291 18.3792H132.926C132.824 17.3293 132.299 16.7024 131.468 16.7024C130.316 16.7024 129.572 17.723 129.572 19.4874C129.572 21.2809 130.345 22.1558 131.366 22.1558C132.109 22.1558 132.751 21.7475 133.203 21.1642L133.597 21.485Z" fill="#00859B"/>
<path d="M140.872 21.6017C140.872 22.0391 140.959 22.1995 141.309 22.3307L141.688 22.4765V22.7682C141.222 22.7536 140.653 22.7245 140.259 22.7245C139.851 22.7245 139.078 22.7682 138.655 22.7682V22.4765L139.472 22.1995V18.6416C139.472 18.0876 139.428 17.6792 139.253 17.4022C139.078 17.1252 138.787 16.9648 138.378 16.9648C137.766 16.9648 137.124 17.3438 136.672 17.8688V21.6017C136.672 22.0391 136.76 22.1995 137.11 22.3307L137.489 22.4765V22.7682C137.022 22.7536 136.454 22.7245 136.06 22.7245C135.652 22.7245 134.879 22.7682 134.456 22.7682V22.4765L135.273 22.1995V14.2526C135.273 13.786 135.171 13.6548 134.748 13.4944L134.441 13.3777V13.0715C135.448 13.0715 136.162 13.0569 136.672 12.9985V17.1397C137.285 16.4689 138.014 16.0607 138.816 16.0607C139.414 16.0607 139.909 16.2502 140.245 16.571C140.697 17.0085 140.872 17.5917 140.872 18.4229V21.6017Z" fill="#00859B"/>
<path d="M145.785 23.0015C143.773 23.0015 142.606 21.4997 142.606 19.5311C142.606 17.5625 143.773 16.0608 145.785 16.0608C147.798 16.0608 148.964 17.5626 148.964 19.5311C148.964 21.4996 147.797 23.0015 145.785 23.0015ZM145.785 16.7169C144.517 16.7169 144.079 18.0584 144.079 19.5311C144.079 21.0037 144.517 22.3454 145.785 22.3454C147.054 22.3454 147.491 21.0038 147.491 19.5311C147.491 18.0583 147.054 16.7169 145.785 16.7169Z" fill="#00859B"/>
<path d="M153.223 23.0015C151.21 23.0015 150.044 21.4997 150.044 19.5311C150.044 17.5625 151.21 16.0608 153.223 16.0608C155.235 16.0608 156.401 17.5626 156.401 19.5311C156.401 21.4996 155.235 23.0015 153.223 23.0015ZM153.223 16.7169C151.954 16.7169 151.517 18.0584 151.517 19.5311C151.517 21.0037 151.954 22.3454 153.223 22.3454C154.491 22.3454 154.929 21.0038 154.929 19.5311C154.929 18.0583 154.491 16.7169 153.223 16.7169Z" fill="#00859B"/>
<path d="M159.594 21.6017C159.594 22.0391 159.682 22.1995 160.032 22.3307L160.411 22.4765V22.7682C159.944 22.7536 159.376 22.7245 158.982 22.7245C158.574 22.7245 157.801 22.7682 157.378 22.7682V22.4765L158.194 22.1995V14.2526C158.194 13.786 158.092 13.6548 157.67 13.4944L157.363 13.3777V13.0715C158.369 13.0715 159.084 13.0569 159.594 12.9985V21.6017Z" fill="#00859B"/>
<path d="M167.148 23.0015C165.135 23.0015 163.969 21.4997 163.969 19.5311C163.969 17.5625 165.135 16.0608 167.148 16.0608C169.16 16.0608 170.326 17.5626 170.326 19.5311C170.326 21.4996 169.16 23.0015 167.148 23.0015ZM167.148 16.7169C165.879 16.7169 165.441 18.0584 165.441 19.5311C165.441 21.0037 165.879 22.3454 167.148 22.3454C168.416 22.3454 168.854 21.0038 168.854 19.5311C168.854 18.0583 168.416 16.7169 167.148 16.7169Z" fill="#00859B"/>
<path d="M171.392 22.7682V22.4765L172.208 22.1995V16.8626H171.217V16.294H172.208V16.192C172.223 14.1505 173.04 12.8528 174.658 12.8528C175.431 12.8528 176.306 13.2319 176.306 13.7713C176.306 14.1213 176.014 14.5442 175.708 14.5442C175.198 14.5442 174.935 13.4069 174.337 13.4069C173.783 13.4069 173.608 14.1943 173.608 15.2733V16.294H175.3L175.183 16.8626H173.608V21.6017C173.608 22.0245 173.666 22.1995 174.075 22.3307L174.556 22.4765V22.7682C174.089 22.7536 173.389 22.7245 172.996 22.7245C172.602 22.7245 171.815 22.7682 171.392 22.7682Z" fill="#00859B"/>
<path d="M120.721 34.9459L121.683 34.6543V27.451C121.683 26.9115 121.566 26.7511 121.027 26.5762L120.706 26.4741V26.1533H127.151C127.166 26.6929 127.253 27.8885 127.311 28.3405H126.903C126.699 27.1741 126.407 26.7511 124.483 26.7511C124.074 26.7511 123.593 26.7657 123.185 26.7803V30.2799H124.147C124.993 30.2799 125.693 30.2215 125.97 30.1632L125.897 30.9652C125.635 30.9214 124.76 30.8777 124.147 30.8777H123.185V34.0272C123.185 34.5084 123.506 34.6688 124.672 34.6688C125.897 34.6688 126.262 34.5668 126.539 34.3627C126.859 34.1294 127.034 33.6774 127.166 33.094H127.53C127.486 33.5899 127.443 34.8147 127.443 35.2667H120.721V34.9459Z" fill="#00859B"/>
<path d="M134.267 33.9836C133.786 34.8731 132.852 35.5 131.715 35.5C129.951 35.5 128.77 34.1586 128.77 32.0443C128.77 29.9446 130.111 28.5593 132.08 28.5593C132.75 28.5593 133.45 28.7197 133.917 28.7634C133.917 29.3321 133.931 30.4111 133.961 30.8778H133.596C133.494 29.8279 132.969 29.2008 132.138 29.2008C130.986 29.2008 130.242 30.2215 130.242 31.9859C130.242 33.7795 131.015 34.6543 132.036 34.6543C132.779 34.6543 133.421 34.246 133.873 33.6628L134.267 33.9836Z" fill="#00859B"/>
<path d="M138.407 35.5C136.395 35.5 135.229 33.9982 135.229 32.0296C135.229 30.061 136.395 28.5593 138.407 28.5593C140.42 28.5593 141.586 30.0612 141.586 32.0296C141.586 33.9981 140.419 35.5 138.407 35.5ZM138.407 29.2155C137.139 29.2155 136.701 30.557 136.701 32.0296C136.701 33.5023 137.139 34.8439 138.407 34.8439C139.676 34.8439 140.113 33.5024 140.113 32.0296C140.113 30.5569 139.676 29.2155 138.407 29.2155Z" fill="#00859B"/>
<path d="M149.052 34.1003C149.052 34.5377 149.14 34.698 149.49 34.8293L149.869 34.9751V35.2668C149.402 35.2522 148.834 35.2231 148.44 35.2231C148.032 35.2231 147.259 35.2668 146.836 35.2668V34.9751L147.653 34.698V31.1402C147.653 30.5862 147.609 30.1778 147.434 29.9008C147.259 29.6238 146.967 29.4634 146.559 29.4634C145.947 29.4634 145.305 29.8424 144.853 30.3674V34.1003C144.853 34.5377 144.941 34.698 145.29 34.8293L145.67 34.9751V35.2668C145.203 35.2522 144.634 35.2231 144.241 35.2231C143.832 35.2231 143.059 35.2668 142.637 35.2668V34.9751L143.453 34.698V29.9737C143.453 29.5071 143.351 29.3759 142.928 29.2155L142.622 29.0988V28.7926C143.628 28.7926 144.343 28.778 144.853 28.7197V29.6383C145.465 28.9675 146.195 28.5593 146.996 28.5593C147.594 28.5593 148.09 28.7488 148.425 29.0696C148.877 29.5071 149.052 30.0903 149.052 30.9215V34.1003Z" fill="#00859B"/>
<path d="M153.966 35.5C151.954 35.5 150.787 33.9982 150.787 32.0296C150.787 30.061 151.954 28.5593 153.966 28.5593C155.978 28.5593 157.145 30.0612 157.145 32.0296C157.145 33.9981 155.978 35.5 153.966 35.5ZM153.966 29.2155C152.697 29.2155 152.26 30.557 152.26 32.0296C152.26 33.5023 152.697 34.8439 153.966 34.8439C155.235 34.8439 155.672 33.5024 155.672 32.0296C155.672 30.5569 155.234 29.2155 153.966 29.2155Z" fill="#00859B"/>
<path d="M164.524 34.1003C164.524 34.5377 164.611 34.698 164.961 34.8293L165.34 34.9751V35.2668C164.873 35.2522 164.305 35.2231 163.911 35.2231C163.503 35.2231 162.759 35.2668 162.336 35.2668V34.9751L163.124 34.698V31.1402C163.124 30.5862 163.08 30.1778 162.905 29.9008C162.73 29.6238 162.453 29.4634 162.059 29.4634C161.491 29.4634 160.864 29.8279 160.412 30.3674V34.1003C160.412 34.5377 160.499 34.698 160.849 34.8293L161.228 34.9751V35.2668C160.762 35.2522 160.193 35.2231 159.799 35.2231C159.391 35.2231 158.618 35.2668 158.195 35.2668V34.9751L159.012 34.698V29.9737C159.012 29.5071 158.91 29.3759 158.487 29.2155L158.181 29.0988V28.7926C159.187 28.7926 159.901 28.778 160.412 28.7197V29.6383C161.039 28.953 161.738 28.5593 162.497 28.5593C163.08 28.5593 163.561 28.7488 163.897 29.0696C164.101 29.2738 164.247 29.5071 164.349 29.7842C165.034 28.9967 165.85 28.5593 166.594 28.5593C167.177 28.5593 167.659 28.7488 167.994 29.0696C168.446 29.5071 168.621 30.0903 168.621 30.9215V34.1003C168.621 34.5377 168.708 34.698 169.058 34.8293L169.437 34.9751V35.2668C168.971 35.2522 168.402 35.2231 168.009 35.2231C167.6 35.2231 166.857 35.2668 166.434 35.2668V34.9751L167.221 34.698V31.1402C167.221 30.5862 167.177 30.1778 167.002 29.9008C166.827 29.6238 166.55 29.4634 166.157 29.4634C165.617 29.4634 164.976 29.8133 164.48 30.3236C164.509 30.5132 164.524 30.7174 164.524 30.9215V34.1003Z" fill="#00859B"/>
<path d="M172.557 34.1003C172.557 34.5377 172.645 34.6981 172.995 34.8294L173.374 34.9752V35.2668C172.907 35.2523 172.338 35.2231 171.945 35.2231C171.536 35.2231 170.764 35.2668 170.341 35.2668V34.9752L171.157 34.6981V29.9738C171.157 29.5072 171.055 29.3759 170.632 29.2155L170.326 29.0989V28.7927C171.332 28.7927 172.047 28.7781 172.557 28.7198V34.1003ZM171.784 27.6844C172.236 27.6844 172.601 27.3345 172.601 26.8534C172.601 26.3723 172.236 26.0222 171.784 26.0222C171.332 26.0222 170.968 26.3722 170.968 26.8534C170.968 27.3346 171.332 27.6844 171.784 27.6844Z" fill="#00859B"/>
<path d="M179.849 33.9836C179.368 34.8731 178.434 35.5 177.297 35.5C175.533 35.5 174.352 34.1586 174.352 32.0443C174.352 29.9446 175.693 28.5593 177.662 28.5593C178.332 28.5593 179.032 28.7197 179.499 28.7634C179.499 29.3321 179.513 30.4111 179.543 30.8778H179.178C179.076 29.8279 178.551 29.2008 177.72 29.2008C176.568 29.2008 175.824 30.2215 175.824 31.9859C175.824 33.7795 176.597 34.6543 177.618 34.6543C178.361 34.6543 179.003 34.246 179.455 33.6628L179.849 33.9836Z" fill="#00859B"/>
<path d="M184.952 30.6152C184.792 29.7112 184.34 29.1279 183.538 29.1279C182.853 29.1279 182.371 29.5362 182.371 30.0758C182.371 30.6444 182.896 30.9652 183.815 31.4319C184.879 31.9714 185.608 32.4671 185.608 33.4878C185.608 34.7272 184.544 35.5 183.217 35.5C182.546 35.5 181.73 35.3251 181.161 35.0918V33.3275H181.496C181.628 34.2169 182.255 34.9168 183.217 34.9168C183.83 34.9168 184.398 34.5377 184.398 33.9107C184.398 33.2983 183.873 32.992 183.144 32.6275C182.08 32.1026 181.161 31.5923 181.161 30.484C181.161 29.2738 182.269 28.5593 183.465 28.5593C184.107 28.5593 184.748 28.7343 185.229 28.7926C185.229 29.3904 185.244 30.1341 185.288 30.6152H184.952Z" fill="#00859B"/>
<path d="M65.4227 1.67117C64.6729 0.921316 63.6558 0.5 62.5953 0.5H39.3145V23.7809C39.3145 24.8414 39.7357 25.8584 40.4856 26.6083L47.3159 33.4387C48.0658 34.1885 49.0828 34.6098 50.1433 34.6098H73.4242V11.3289C73.4242 10.2684 73.0029 9.25136 72.2531 8.5015L65.4227 1.67117ZM63.0769 21.5571C63.0769 25.0762 60.4176 27.1983 56.7642 27.1983C54.3736 27.1983 51.8754 26.3655 49.8073 24.4315L52.1172 21.5571C53.38 22.6586 54.884 23.6792 56.791 23.6792C58.2956 23.6792 59.2089 22.9272 59.2089 21.8258V21.799C59.2089 20.8857 58.6717 20.2679 55.9852 19.247C52.6544 17.9578 50.5859 16.6953 50.5859 13.4718V13.4181C50.5859 10.1411 53.1114 7.91149 56.7375 7.91149C58.9671 7.91149 61.0891 8.63677 62.8083 10.2216L60.6322 13.1765C59.4508 12.2094 58.1072 11.4303 56.6299 11.4303C55.2602 11.4303 54.4544 12.1018 54.4544 13.0689V13.0957C54.4544 14.1971 55.0991 14.6805 58.027 15.8895C61.331 17.1787 63.0769 18.5755 63.0769 21.5036V21.5571Z" fill="#00859B"/>
<path d="M88.6697 0.5C87.6092 0.5 86.5922 0.921273 85.8423 1.67115L79.012 8.50148C78.2621 9.25136 77.8408 10.2684 77.8408 11.3289V34.6098H111.951V0.5H88.6697ZM101.016 26.9564H88.7933V8.15331H100.908V11.6721H92.6618V15.7282H99.9145V19.247H92.6618V23.4376H101.016V26.9564Z" fill="#00859B"/>
<path d="M20.981 21.3156V21.2886C20.981 19.9189 19.9869 19.1128 18.0526 19.1128H14.6416V23.5182H18.1334C19.8793 23.5182 20.981 22.7929 20.981 21.3156Z" fill="#00859B"/>
<path d="M0.791016 34.61H24.0719C25.1324 34.61 26.1494 34.1888 26.8993 33.4389L33.7296 26.6085C34.4795 25.8587 34.9008 24.8416 34.9008 23.7812V0.500244H0.791016V34.61ZM10.853 8.15358H17.8371C19.9592 8.15358 21.6783 8.71754 22.7527 9.79194C23.5853 10.6515 24.015 11.6724 24.015 12.9887V13.0692C24.015 15.2718 22.8063 16.4807 21.4633 17.179C23.505 17.958 24.8213 19.1938 24.8213 21.6649V21.7992C24.8213 25.157 22.108 26.9567 18.025 26.9567H10.853V8.15358Z" fill="#00859B"/>
<path d="M20.1747 13.7136V13.6866C20.1747 12.3168 19.2346 11.5916 17.5427 11.5916H14.6416V15.8356H17.3544C19.0735 15.8356 20.1747 15.1371 20.1747 13.7136Z" fill="#00859B"/>
</svg>
